<?xml version="1.0" encoding="utf-8"?>
<!-- Generator: Adobe Illustrator 25.4.1, SVG Export Plug-In . SVG Version: 6.00 Build 0)  -->
<svg version="1.1" id="Layer_1" xmlns="http://www.w3.org/2000/svg" xmlns:xlink="http://www.w3.org/1999/xlink" x="0px" y="0px"
	 viewBox="0 0 2000 2000" style="enable-background:new 0 0 2000 2000;" xml:space="preserve">
<style type="text/css">
	.st0{fill:#1F1E22;}
	.st1{fill:#F9F6F8;}
	.st2{fill:url(#SVGID_1_);}
	.st3{fill:url(#SVGID_00000129896152168157556940000015820391034948057484_);}
	.st4{fill:url(#SVGID_00000119806140166433942980000008768197966856949168_);}
	.st5{fill:url(#SVGID_00000028319899302767320570000005496308305709745283_);}
	.st6{fill:#F96910;}
	.st7{fill:#F96910;stroke:#F46915;stroke-width:11.2475;stroke-miterlimit:10;}
	.st8{fill:none;stroke:#F46915;stroke-width:11.2475;stroke-miterlimit:10;}
	.st9{fill:#F3F4F4;}
</style>
<path class="st0" d="M1898.51,2000H101.49C45.44,2000,0,1954.56,0,1898.51V101.49C0,45.44,45.44,0,101.49,0h1797.01
	C1954.56,0,2000,45.44,2000,101.49v1797.01C2000,1954.56,1954.56,2000,1898.51,2000z"/>
<path class="st1" d="M1648.69,1540.51H389.48c-48.45,0-87.72-39.27-87.72-87.72V148.7c0-48.45,39.27-87.72,87.72-87.72h0
	c743.89,0,1346.93,603.04,1346.93,1346.93v44.88C1736.41,1501.24,1697.14,1540.51,1648.69,1540.51z"/>
<linearGradient id="SVGID_1_" gradientUnits="userSpaceOnUse" x1="875.3307" y1="1393.9825" x2="878.7151" y2="652.9283">
	<stop  offset="0.0871" style="stop-color:#1A0E81"/>
	<stop  offset="0.6411" style="stop-color:#22A8CB"/>
</linearGradient>
<path class="st2" d="M1019.09,1393.34H733.66V939c0-157.64,127.79-285.43,285.43-285.43h0V1393.34z"/>
<linearGradient id="SVGID_00000096030453101308273490000006761695142572554173_" gradientUnits="userSpaceOnUse" x1="1191.1249" y1="1393.9811" x2="1193.8312" y2="801.4029">
	<stop  offset="0.0871" style="stop-color:#1A0E81"/>
	<stop  offset="0.6411" style="stop-color:#22A8CB"/>
</linearGradient>
<path style="fill:url(#SVGID_00000096030453101308273490000006761695142572554173_);" d="M1335.2,1393.34h-285.43V800.75h0
	c157.64,0,285.43,127.79,285.43,285.43V1393.34z"/>
<linearGradient id="SVGID_00000025420050386947952390000000408374608121810086_" gradientUnits="userSpaceOnUse" x1="1512.224" y1="1353.5227" x2="1517.302" y2="241.6117">
	<stop  offset="0.0871" style="stop-color:#1A0E81"/>
	<stop  offset="0.6411" style="stop-color:#22A8CB"/>
</linearGradient>
<path style="fill:url(#SVGID_00000025420050386947952390000000408374608121810086_);" d="M1656.88,1393.34h-285.43V464.86
	c0-17.7,14.35-32.06,32.06-32.06h221.31c17.7,0,32.06,14.35,32.06,32.06V1393.34z"/>
<linearGradient id="SVGID_00000125579348105831749770000010682210496764101764_" gradientUnits="userSpaceOnUse" x1="554.7106" y1="1411.8879" x2="550.4181" y2="210.1911">
	<stop  offset="0.0871" style="stop-color:#1A0E81"/>
	<stop  offset="0.6411" style="stop-color:#22A8CB"/>
</linearGradient>
<path style="fill:url(#SVGID_00000125579348105831749770000010682210496764101764_);" d="M695.43,1393.34H410.01V316.24
	c0-19.05,15.44-34.49,34.49-34.49h216.46c19.05,0,34.49,15.44,34.49,34.49V1393.34z"/>
<ellipse class="st6" cx="552.72" cy="1184.73" rx="23.82" ry="24.57"/>
<ellipse class="st6" cx="893.88" cy="683.28" rx="23.82" ry="24.57"/>
<ellipse class="st6" cx="1192.48" cy="858.84" rx="23.82" ry="24.57"/>
<ellipse class="st6" cx="1512.45" cy="432.8" rx="23.82" ry="24.57"/>
<line class="st7" x1="893.88" y1="683.28" x2="552.72" y2="1184.73"/>
<line class="st8" x1="1192.48" y1="858.84" x2="893.88" y2="683.28"/>
<line class="st8" x1="1512.45" y1="432.8" x2="1192.48" y2="858.84"/>
<g>
	<g>
		<path class="st9" d="M337.05,1703.2h50.67v76.69h0.54c4.06-6.5,8.67-12.74,13.01-18.7l40.1-57.99h64.76l-64.22,76.96l67.2,105.68
			h-60.43l-43.9-75.33l-17.07,20.32v55.01h-50.67V1703.2z"/>
		<path class="st9" d="M532.43,1834.9c12.19,5.96,31.71,12.74,52.57,12.74c17.07,0,25.74-5.42,25.74-14.63
			c0-7.86-8.4-13.01-30.62-19.24c-31.16-8.67-56.91-24.66-56.91-56.36c0-33.06,29.81-57.45,77.23-57.45
			c24.93,0,41.73,4.33,55.82,10.3l-11.65,40.11c-8.67-3.52-24.12-9.48-44.98-9.48c-15.18,0-23.85,4.88-23.85,12.74
			c0,9.75,11.65,13.01,35.5,20.59c35.5,11.38,52.3,28.45,52.3,56.09c0,30.62-24.12,58.8-82.38,58.8c-24.12,0-47.69-6.5-59.34-12.46
			L532.43,1834.9z"/>
		<path class="st9" d="M745.42,1841.4l-11.65,44.44h-53.93l57.72-182.64h69.91l61.51,182.64h-56.91l-13.55-44.44H745.42z
			 M790.68,1804.01l-9.76-32.25c-3.25-10.3-7.05-23.58-10.3-34.14h-0.54c-2.98,10.57-5.69,23.85-8.67,34.42l-8.67,31.98H790.68z"/>
		<path class="st9" d="M893.92,1705.64c14.36-2.17,36.85-4.06,64.49-4.06c30.62,0,50.94,4.33,65.04,14.36
			c11.65,8.4,18.97,21.68,18.97,40.11c0,24.39-19.78,39.83-32.52,43.9v1.08c12.19,5.15,18.97,17.07,24.12,32.25
			c6.23,18.7,12.46,45.52,15.99,52.57h-52.03c-2.98-5.42-7.86-18.16-14.09-41.73c-5.69-21.95-13.01-26.29-30.08-26.29h-9.21v68.02
			h-50.67V1705.64z M944.6,1781.79h15.17c20.05,0,31.98-8.13,31.98-21.95c0-13.82-10.3-20.87-27.64-20.87
			c-11.38,0-16.8,0.54-19.51,1.08V1781.79z"/>
		<path class="st9" d="M1078.47,1705.64c16.26-2.17,34.42-4.06,54.74-4.06c38.75,0,68.29,10.57,85.36,29.27
			c15.17,16.53,21.95,36.04,21.95,59.62c0,20.87-6.23,46.34-25.2,66.66c-17.61,18.7-48.51,30.35-89.42,30.35
			c-16.53,0-31.71-0.27-47.42-1.63V1705.64z M1091.74,1874.73c8.67,1.36,21.68,1.63,36.31,1.63c69.37,0,98.91-38.21,98.91-85.63
			c0.54-44.71-28.18-78.04-94.84-78.04c-17.61,0-30.89,1.63-40.38,3.52V1874.73z"/>
		<path class="st9" d="M1297.96,1821.62l-25.2,64.22h-13.82l73.71-182.64h13.01l73.16,182.64H1405l-25.74-64.22H1297.96z
			 M1374.92,1810.51l-25.74-64.22c-4.88-12.19-7.32-20.05-10.03-29h-0.54c-2.71,9.21-5.69,17.34-10.03,28.18l-26.01,65.04H1374.92z"
			/>
		<path class="st9" d="M1486.84,1714.31h-68.02v-11.11h149.31v11.11h-68.02v171.53h-13.28V1714.31z"/>
		<path class="st9" d="M1609.6,1821.62l-25.2,64.22h-13.82l73.71-182.64h13.01l73.16,182.64h-13.82l-25.74-64.22H1609.6z
			 M1686.56,1810.51l-25.74-64.22c-4.88-12.19-7.32-20.05-10.03-29h-0.54c-2.71,9.21-5.69,17.34-10.03,28.18l-26.01,65.04H1686.56z"
			/>
	</g>
</g>
</svg>
